<?xml version="1.0" encoding="utf-8"?>
<!-- Generator: Adobe Illustrator 24.3.0, SVG Export Plug-In . SVG Version: 6.00 Build 0)  -->
<svg version="1.1" id="레이어_1" xmlns="http://www.w3.org/2000/svg" xmlns:xlink="http://www.w3.org/1999/xlink" x="0px"
	 y="0px" viewBox="0 0 500 500" style="enable-background:new 0 0 500 500;" xml:space="preserve">
<g>
	<path d="M472.8,386c-12.7,6.5-25.4,13-38.1,19.5c-31.5,16.1-63,32.2-94.5,48.3c-28.5,14.5-56.9,29.1-85.4,43.6
		c-0.4,0.2-0.7,0.3-1.4,0.6c0-0.8,0-1.3,0-1.8c0-22.4-0.1-44.8-0.1-67.3c0-1.4,0.4-2.1,1.6-2.7c16.4-8.3,32.7-16.7,49-25
		c31.5-16.1,63-32.2,94.6-48.3c7.8-4,15.5-7.9,23.2-11.9c0.5-0.3,1.2-1,1.2-1.5c0-11.4,0-22.7-0.1-34.1c0-0.1-0.1-0.2-0.2-0.5
		c-51.2,26.2-102.4,52.3-153.8,78.5c-0.1-0.5-0.1-0.9-0.2-1.3c0-0.2,0-0.3,0-0.5c0-22.5-0.1-45-0.1-67.6c0-1.3,0.4-1.9,1.5-2.5
		c34.8-17.7,69.6-35.5,104.4-53.3c15.3-7.8,30.5-15.6,45.9-23.3c1.8-0.9,2.5-1.8,2.5-3.9c-0.1-16.4-0.1-32.8-0.1-49.2
		c0-10.1,0-20.2-0.1-30.4c0-1.1,0.3-1.6,1.3-2.1c14.2-7.2,28.4-14.5,42.6-21.8c1.9-1,3.8-1.9,5.9-3c0,0.8,0,1.4,0,2
		c0,35.9,0,71.8,0.1,107.7c0,0.6,0.2,1.3,0.2,1.9C472.8,286.2,472.8,336.1,472.8,386z"/>
	<path d="M28.1,119.6c6,3,11.7,5.9,17.3,8.7c13.8,6.9,27.6,13.9,41.4,20.8c28,14.1,56.1,28.3,84.1,42.4c26.8,13.5,53.7,27,80.5,40.6
		c0.9,0.4,1.5,0.8,1.5,2c0,25.6,0,51.2,0.1,76.8c0,0.3,0,0.6,0,1.3c-58-29.2-115.7-58.3-173.6-87.5c-0.1,0.5-0.1,0.9-0.1,1.3
		c0,10.8,0,21.6,0,32.4c0,1.6,0.1,3.2,0.1,4.8c0,1,0.3,1.5,1.2,1.9c3.8,1.9,7.5,3.8,11.2,5.7c23.7,11.9,47.3,23.8,71,35.7
		c24.5,12.3,49,24.7,73.5,37c1,0.5,1.3,1.1,1.3,2.1c0,12.6,0,25.2,0,37.8c0,12.6,0.1,25.2,0.1,37.8c0,0.6,0,1.2,0,2.2
		c-52.8-26.6-105.3-53-158-79.6c0,31.1,0,62.1,0,93.3c-3.5-1.7-6.8-3.4-10.1-5.1c-13.1-6.6-26.3-13.3-39.4-19.8
		c-1.1-0.5-1.5-1.1-1.5-2.3c0-20.6,0-41.2-0.1-61.8c0-25.5-0.1-51.1-0.1-76.6c0-12.7-0.1-25.3-0.1-38c-0.1-25.4-0.1-50.9-0.2-76.3
		c0-11.8,0-23.7-0.1-35.5C28.1,121.2,28.1,120.5,28.1,119.6z"/>
	<path d="M29.9,114c3.5-1.8,6.8-3.5,10.1-5.1c33.7-17,67.5-34,101.2-51c22.7-11.5,45.4-22.9,68.2-34.4c14.2-7.1,28.3-14.3,42.5-21.5
		c1-0.5,1.7-0.5,2.7,0c24,11.9,48,23.8,72,35.7c25.4,12.6,50.8,25.2,76.2,37.8c7.1,3.5,14.2,7,21.1,10.9c3.4,1.9,6.5,4.6,9.1,7.4
		c7.4,8,8.6,17.8,3.8,27.7c-4,8.1-10.1,14.4-17,20c-13.8,11-29.4,18.7-45.8,24.9c-17.8,6.7-36.2,11.1-55.1,13
		c-17.6,1.8-35.2,1.6-52.6-2.4c-7.5-1.7-14.7-4.3-21.6-7.7c-30-14.9-60.1-29.8-90.1-44.7c-8.6-4.3-17.2-8.5-25.8-12.8
		c-0.9-0.4-1.5-0.4-2.4,0c-16.2,8.2-32.5,16.4-48.7,24.6c-0.6,0.3-1.5,0.3-2.1,0c-12.6-6.2-25.1-12.4-37.6-18.6
		C35.2,116.6,32.7,115.3,29.9,114z M189.1,80.1c0.6,0.4,1,0.6,1.3,0.7c19.8,9.8,39.5,19.6,59.3,29.4c18.3,9.1,36.6,18.1,54.8,27.3
		c5.1,2.6,10.4,3.8,16,3.6c9.3-0.3,18.3-2.4,26.7-6.5c4.6-2.3,9-4.9,12-9.3c3.1-4.5,2-8.6-2.8-11.1c-0.3-0.1-0.6-0.3-0.8-0.4
		c-12.6-6.3-25.3-12.5-37.9-18.8c-26.1-13-52.3-25.9-78.4-38.9c-1-0.5-1.8-0.5-2.9,0c-12.5,6.3-25,12.6-37.5,18.9
		C195.8,76.7,192.6,78.3,189.1,80.1z"/>
</g>
</svg>
