<svg width="28" height="28" viewBox="0 0 28 28" fill="none" xmlns="http://www.w3.org/2000/svg">
<path d="M5.66667 5.66667L22.3333 22.3333M14 26C12.4241 26 10.8637 25.6896 9.4078 25.0866C7.95189 24.4835 6.62902 23.5996 5.51472 22.4853C4.40042 21.371 3.5165 20.0481 2.91345 18.5922C2.31039 17.1363 2 15.5759 2 14C2 12.4241 2.31039 10.8637 2.91345 9.4078C3.5165 7.95189 4.40042 6.62902 5.51472 5.51472C6.62902 4.40042 7.95189 3.5165 9.4078 2.91345C10.8637 2.31039 12.4241 2 14 2C17.1826 2 20.2348 3.26428 22.4853 5.51472C24.7357 7.76516 26 10.8174 26 14C26 17.1826 24.7357 20.2348 22.4853 22.4853C20.2348 24.7357 17.1826 26 14 26Z" stroke="white" stroke-width="2.66667" stroke-linecap="round" stroke-linejoin="round"/>
</svg>
